<svg class="brxe-svg" id="brxe-btlatm" xmlns="http://www.w3.org/2000/svg" xmlns:xlink="http://www.w3.org/1999/xlink" width="102.219" height="65.532" viewBox="0 0 102.219 65.532"><defs><clipPath id="clip-path"><rect id="Rectangle_1" data-name="Rectangle 1" width="102.219" height="65.532" transform="translate(0 0)"/></clipPath></defs><g id="Group_1" data-name="Group 1" clip-path="url(#clip-path)"><path id="Path_1" data-name="Path 1" d="M0,26.756A32.336,32.336,0,0,0,13.976,53.362,32.719,32.719,0,0,0,27.84,26.605,32.714,32.714,0,0,0,14.188,0,32.341,32.341,0,0,0,0,26.756" transform="translate(37.692 6.161)"/><path id="Path_2" data-name="Path 2" d="M33.181,32.917A36.821,36.821,0,0,1,47.715,3.612a32.766,32.766,0,1,0-.232,58.427,36.814,36.814,0,0,1-14.3-29.122" transform="translate(0 0)"/><path id="Path_3" data-name="Path 3" d="M32.174,64.348A32.174,32.174,0,1,1,64.348,32.174,32.21,32.21,0,0,1,32.174,64.348m0-59.837A27.662,27.662,0,1,0,59.837,32.174,27.694,27.694,0,0,0,32.174,4.512" transform="translate(37.87 0.743)"/></g></svg>